<?xml version="1.0" encoding="utf-8"?>
<!-- Svg Vector Icons : http://www.onlinewebfonts.com/icon -->
<!DOCTYPE svg PUBLIC "-//W3C//DTD SVG 1.1//EN" "http://www.w3.org/Graphics/SVG/1.1/DTD/svg11.dtd">
<svg version="1.1" xmlns="http://www.w3.org/2000/svg" xmlns:xlink="http://www.w3.org/1999/xlink" x="0px" y="0px" viewBox="0 0 1000 1000" enable-background="new 0 0 1000 1000" xml:space="preserve">
<metadata> Svg Vector Icons : http://www.onlinewebfonts.com/icon </metadata>
<g><g transform="translate(0.000000,511.000000) scale(0.100000,-0.100000)"><path d="M6078.1,3323.9c-2212.3-864.8-2705-1065.9-2692.4-1098.6c83-191.1,83-206.1,85.5-1900.5V-1362l-60.3-118.2l-60.3-118.2l67.9-25.1c35.2-15.1,1267-495.2,2735.2-1068.4c2800.5-1091,2760.3-1078.5,2808.1-952.8c7.5,22.6,15.1,1822.6,15.1,3997.2v3956.9l-55.3,37.7c-30.2,22.6-72.9,40.2-95.5,37.7C8805.7,4384.8,7568.9,3907.2,6078.1,3323.9z"/><path d="M1145.8,2124.8c-490.2-75.4-877.3-432.4-1005.6-922.6c-47.7-178.5-55.3-1485.7-10-1696.9c70.4-334.3,314.2-656.1,618.4-819.5c269-140.8,389.7-155.9,1427.9-155.9c802,0,940.2,5,988,40.2l55.3,37.7V337.4c0,1578.8-2.5,1734.6-42.7,1764.8c-32.7,27.7-223.7,35.2-972.9,37.7C1691.3,2142.4,1216.2,2134.8,1145.8,2124.8z"/><path d="M9202.9,327.3c0-829.6,5-993,35.2-993c60.3,0,326.8,193.6,412.3,301.7c367,455,324.3,1116.2-95.5,1488.3c-110.6,98-274,196.1-326.8,196.1C9210.5,1320.3,9202.9,998.6,9202.9,327.3z"/><path d="M1284-2888v-1194.1l55.3-37.7c83-60.3,1214.2-60.3,1297.2,0l55.3,37.7V-2888v1191.6h-703.9H1284V-2888z"/></g></g>
</svg>